<svg width="64" height="64" viewBox="0 0 64 64" fill="none" xmlns="http://www.w3.org/2000/svg">
<path d="M3.90095 0L0 3.87048L12.6781 16.5486C12.099 18.5905 11.8552 20.7238 11.8552 22.9486C12.0076 26.6949 13.1405 30.3357 15.1406 33.507C17.1408 36.6784 19.9382 39.2693 23.2533 41.021C27.3981 43.1848 30.141 47.2991 30.141 51.9924V52.6324C30.141 57.6914 34.2248 61.7752 39.2838 61.7752C44.4038 61.7752 47.9086 59.0629 50.2552 54.1562L60.1295 64L64 60.1295L3.90095 0ZM39.2838 55.68C37.6076 55.68 36.2362 54.3086 36.2362 52.6324V51.9924C36.2362 45.1962 32.3352 38.9181 26.0876 35.6267C23.7221 34.3696 21.7265 32.5156 20.2991 30.2488C18.8716 27.982 18.062 25.3812 17.9505 22.7048V21.8514L21.4857 25.3562C21.5771 25.661 21.6381 25.9657 21.7295 26.2705L22.2171 26.0876L25.9352 29.7752L24.2895 30.4152C25.2038 31.421 26.2705 32.2743 27.52 32.9143C29.5619 34.0114 31.36 35.3829 32.9143 36.9371L33.0362 36.9067L36.7543 40.6248L36.0838 40.8686C37.6381 43.3676 38.6743 46.2019 39.0705 49.1276L42.941 47.7257C43.0019 47.5124 43.0933 47.2686 43.1543 47.0248L45.5924 49.4629C43.7638 54.7048 41.3562 55.68 39.2838 55.68ZM44.739 17.8895L33.6152 21.9733L26.7276 15.0857L38.339 10.88C42.1486 12.3124 43.9467 15.2076 44.739 17.8895ZM22.7962 11.1543L18.4686 6.82667C22.2476 3.16952 27.3067 0.822857 32.8229 0.822857C54.5219 0.822857 54.5219 22.1562 54.5219 22.1562C54.5219 29.6533 54.2171 36.2667 53.4857 41.8438L47.9391 36.2971C48.2438 32.3962 48.4267 27.7333 48.4267 22.1562C48.4267 19.6571 47.4819 6.9181 32.8229 6.9181C29.1352 6.9181 25.5695 8.4419 22.7962 11.1543ZM44.4038 32.8229L37.3333 25.661L45.379 22.7352C45.379 26.4533 45.2876 29.6533 45.1352 32.5181L44.4038 32.8229Z" fill="#357F71"/>
</svg>
