<svg width="64" height="64" viewBox="0 0 64 64" fill="none" xmlns="http://www.w3.org/2000/svg">
<path fill-rule="evenodd" clip-rule="evenodd" d="M48 22.2844C50.0676 22.9031 51.5556 23.1111 51.5556 23.1111V17.7778H55.1111C57.4686 17.7778 59.7295 16.8413 61.3965 15.1743C63.0635 13.5073 64 11.2464 64 8.88889C64 6.53141 63.0635 4.27049 61.3965 2.6035C59.7295 0.936505 57.4686 0 55.1111 0H44.864C42.3952 0 40.0276 0.980708 38.2819 2.72638C36.5363 4.47205 35.5556 6.83969 35.5556 9.30844C35.5556 17.3404 43.2853 20.8747 48 22.2844ZM60.4444 8.88889C60.4444 10.3034 59.8825 11.6599 58.8823 12.6601C57.8822 13.6603 56.5256 14.2222 55.1111 14.2222H48V18.5511C47.0247 18.2199 46.0726 17.8238 45.1502 17.3653C41.6249 15.5982 39.1111 13.0844 39.1111 9.30844C39.1111 7.78268 39.7172 6.31941 40.7961 5.24054C41.875 4.16166 43.3382 3.55556 44.864 3.55556H55.1111C56.5256 3.55556 57.8822 4.11746 58.8823 5.11765C59.8825 6.11785 60.4444 7.4744 60.4444 8.88889ZM15.6747 21.3209C13.3449 21.2402 11.1402 20.2472 9.53584 18.556C7.9315 16.8647 7.05605 14.6107 7.09827 12.28C7.14049 9.94921 8.09698 7.72839 9.76152 6.09636C11.4261 4.46432 13.6653 3.5518 15.9964 3.55556H21.6302C23.909 3.55556 26.0944 4.46078 27.7057 6.07209C29.317 7.68341 30.2222 9.86882 30.2222 12.1476C30.2222 19.3333 23.7689 22.6187 19.5556 24C17.5147 24.6684 16 24.8889 16 24.8889V21.3333L15.6747 21.3209ZM19.5556 17.904L15.8044 17.7689C14.3948 17.7383 13.0548 17.1503 12.0777 16.1338C11.1006 15.1173 10.5662 13.755 10.5913 12.3453C10.6165 10.9355 11.1992 9.5932 12.2119 8.61219C13.2247 7.63118 14.5848 7.09142 15.9947 7.11111H21.6284C22.29 7.11088 22.9451 7.24098 23.5564 7.49398C24.1676 7.74698 24.723 8.11792 25.1909 8.58562C25.6588 9.05332 26.0299 9.60862 26.2831 10.2198C26.5363 10.8309 26.6667 11.486 26.6667 12.1476C26.6667 15.552 24.5031 17.7831 21.4684 19.3653C20.8284 19.6996 20.1796 19.984 19.5556 20.2258V17.904ZM39.1111 32C39.1111 35.9289 35.9289 39.1111 32 39.1111C28.0711 39.1111 24.8889 35.9289 24.8889 32C24.8889 28.0711 28.0711 24.8889 32 24.8889C35.9289 24.8889 39.1111 28.0711 39.1111 32ZM35.5556 32C35.5556 32.943 35.181 33.8474 34.5142 34.5142C33.8474 35.181 32.943 35.5556 32 35.5556C31.057 35.5556 30.1526 35.181 29.4858 34.5142C28.819 33.8474 28.4444 32.943 28.4444 32C28.4444 31.057 28.819 30.1526 29.4858 29.4858C30.1526 28.819 31.057 28.4444 32 28.4444C32.943 28.4444 33.8474 28.819 34.5142 29.4858C35.181 30.1526 35.5556 31.057 35.5556 32ZM23.1111 35.5556C23.1111 39.4844 19.9289 42.6667 16 42.6667C12.0711 42.6667 8.88889 39.4844 8.88889 35.5556C8.88889 31.6267 12.0711 28.4444 16 28.4444C19.9289 28.4444 23.1111 31.6267 23.1111 35.5556ZM19.5556 35.5556C19.5556 36.4985 19.181 37.4029 18.5142 38.0697C17.8474 38.7365 16.943 39.1111 16 39.1111C15.057 39.1111 14.1526 38.7365 13.4858 38.0697C12.819 37.4029 12.4444 36.4985 12.4444 35.5556C12.4444 34.6126 12.819 33.7082 13.4858 33.0414C14.1526 32.3746 15.057 32 16 32C16.943 32 17.8474 32.3746 18.5142 33.0414C19.181 33.7082 19.5556 34.6126 19.5556 35.5556ZM0 54.3022C0 48.9298 10.6596 46.2222 16 46.2222C17.04 46.2222 18.2827 46.3253 19.6089 46.5298C21.9911 44.7822 26.3591 42.6667 32 42.6667C37.6391 42.6667 42.0071 44.7822 44.3929 46.5298C45.5859 46.3374 46.7916 46.2346 48 46.2222C53.3404 46.2222 64 48.9298 64 54.3022V64H0V54.3022ZM27.8258 53.3742C28.4444 53.9502 28.4444 54.2507 28.4444 54.3022V60.4444H3.55556V54.3022C3.55556 54.2489 3.55555 53.9502 4.17422 53.3742C4.81955 52.7716 5.88444 52.1298 7.33155 51.5431C10.2329 50.3698 13.7778 49.7778 16 49.7778C18.2222 49.7778 21.7671 50.3698 24.6684 51.5431C26.1156 52.1298 27.1804 52.7716 27.8258 53.3742ZM39.3636 47.744C37.0396 46.7363 34.533 46.2183 32 46.2222C29.056 46.2222 26.5529 46.9084 24.6382 47.744C28.576 49.0667 32 51.2569 32 54.304C32 51.2569 35.424 49.0684 39.3636 47.744ZM60.4444 54.304C60.4444 54.2507 60.4444 53.9502 59.8258 53.3742C59.1804 52.7716 58.1156 52.1298 56.6684 51.5431C53.7671 50.3698 50.2222 49.7778 48 49.7778C45.7778 49.7778 42.2329 50.3698 39.3316 51.5431C37.8844 52.1298 36.8196 52.7716 36.1742 53.3742C35.5556 53.9502 35.5556 54.2507 35.5556 54.3022V60.4444H60.4444V54.3022V54.304ZM48 42.6667C51.9289 42.6667 55.1111 39.4844 55.1111 35.5556C55.1111 31.6267 51.9289 28.4444 48 28.4444C44.0711 28.4444 40.8889 31.6267 40.8889 35.5556C40.8889 39.4844 44.0711 42.6667 48 42.6667ZM48 39.1111C48.943 39.1111 49.8474 38.7365 50.5142 38.0697C51.181 37.4029 51.5556 36.4985 51.5556 35.5556C51.5556 34.6126 51.181 33.7082 50.5142 33.0414C49.8474 32.3746 48.943 32 48 32C47.057 32 46.1526 32.3746 45.4858 33.0414C44.819 33.7082 44.4444 34.6126 44.4444 35.5556C44.4444 36.4985 44.819 37.4029 45.4858 38.0697C46.1526 38.7365 47.057 39.1111 48 39.1111Z" fill="#357F71"/>
</svg>
