<svg width="68" height="68" viewBox="0 0 68 68" fill="none" xmlns="http://www.w3.org/2000/svg">
<path d="M63.5661 46.2625C65.1343 42.4858 66 38.3439 66 34C66 16.3261 51.6726 2 34 2C16.3261 2 2 16.3261 2 34C2 51.6726 16.3261 66 34 66C38.6897 66 43.1438 64.9912 47.157 63.1786" stroke="#357F71" stroke-width="3" stroke-miterlimit="10" stroke-linecap="round" stroke-linejoin="round"/>
<path d="M28.0092 30.3876C26.5347 27.0688 22.6489 25.5737 19.3302 27.0482C17.8419 27.7094 16.6521 28.8993 15.9908 30.3876" stroke="#357F71" stroke-width="3" stroke-miterlimit="10" stroke-linecap="round"/>
<path d="M52.0092 30.3876C50.5347 27.0688 46.6489 25.5737 43.3302 27.0482C41.842 27.7094 40.6521 28.8993 39.9908 30.3876" stroke="#357F71" stroke-width="3" stroke-miterlimit="10" stroke-linecap="round"/>
<path d="M54.2723 45.7858C54.2723 45.7858 63.1577 51.6433 63.1577 56.3932C63.1577 59.8257 60.9661 62.669 57.2145 62.669C52.0369 62.669 46.5231 53.9805 46.5231 53.9805" stroke="#357F71" stroke-width="3" stroke-miterlimit="10"/>
<path d="M11.9697 41.4539C15.0762 50.6388 23.7656 57.251 34 57.251C44.2346 57.251 52.9251 50.6377 56.0312 41.4514" stroke="#357F71" stroke-width="3" stroke-miterlimit="10" stroke-linecap="round" stroke-linejoin="round"/>
</svg>
